<?xml version="1.0" encoding="UTF-8"?>
<svg id="Camada_1" data-name="Camada 1" xmlns="http://www.w3.org/2000/svg" viewBox="0 0 1112.83 203.6">
  <defs>
    <style>
      .cls-1 {
        fill: #1ed295;
        stroke: #2b2929;
        stroke-miterlimit: 10;
      }
    </style>
  </defs>
  <path class="cls-1" d="M153.51,74.8L212.61,5.5h93.3l-113.1,127.2v66h-78.6v-66L1.11,5.5h93.5l59,69.3h-.1Z"/>
  <polygon class="cls-1" points="455.41 5.5 362.01 5.5 253.81 198.7 342.31 198.7 358.21 165.6 381.01 118.5 408.81 61.5 436.41 118.5 459.21 165.6 475.11 198.7 563.61 198.7 455.41 5.5"/>
  <path class="cls-1" d="M695.21,80c56.3,2.7,135.3,6.5,135.2,54.9,0,55.2-66,68.2-136.8,68.2-70.7-.1-129.3-8.3-136.8-68.2h82.4c9,14.9,29.9,18.8,54.5,18.8s54.5-3.9,54.5-18.8-24.5-9.8-56.1-11.2c-56.3-2.7-135.3-6.5-135.2-54.8C556.91,13.7,622.91.5,693.71.5c70.7.4,129.3,8,136.8,68.4h-82.4c-9-15.2-29.9-18.8-54.5-18.8s-54.5,3.5-54.5,18.8,24.5,9.6,56.1,11.1h0Z"/>
  <path class="cls-1" d="M959.31,74.8l59.1-69.3h93.3l-113.1,127.2v66h-78.6v-66L806.91,5.5h93.5l59,69.3h-.1Z"/>
</svg>